<svg width="100" height="100" viewBox="0 0 100 100" xmlns="http://www.w3.org/2000/svg">
  <!-- Gradient Background -->
  <defs>
    <linearGradient id="bg" x1="0%" y1="0%" x2="100%" y2="100%">
      <stop offset="0%" stop-color="#8a2be2" />
      <stop offset="100%" stop-color="#4169e1" />
    </linearGradient>
  </defs>
  
  <!-- Main Circle -->
  <circle cx="50" cy="50" r="45" fill="url(#bg)" />
  
  <!-- Letter R -->
  <path d="M35,30 v35 h8 v-12 h8 l5,12 h8 l-6.5,-14.5 c4,-2 6.5,-6 6.5,-10.5 c0,-7 -5,-10 -13,-10 z M43,38 v-8 h8 c3,0 5,1.5 5,4 s-2,4 -5,4 z" 
        fill="white" />
  
  <!-- Small Hearts -->
  <path d="M25,47 c0,-3 4,-3 4,0 c0,1 -2,3 -2,3 s-2,-2 -2,-3 z" fill="white" opacity="0.9" />
  <path d="M75,47 c0,-3 4,-3 4,0 c0,1 -2,3 -2,3 s-2,-2 -2,-3 z" fill="white" opacity="0.9" />
</svg>
